<svg xmlns="http://www.w3.org/2000/svg" version="1.1" xmlns:xlink="http://www.w3.org/1999/xlink" xmlns:svgjs="http://svgjs.dev/svgjs" width="1000" height="1000" viewBox="0 0 1000 1000"><rect width="1000" height="1000" fill="#00ffef"></rect><g transform="matrix(0.7,0,0,0.7,149.57575757575756,282.1265587044535)"><svg viewBox="0 0 396 247" data-background-color="#00ffef" preserveAspectRatio="xMidYMid meet" height="623" width="1000" xmlns="http://www.w3.org/2000/svg" xmlns:xlink="http://www.w3.org/1999/xlink"><g id="tight-bounds" transform="matrix(1,0,0,1,0.2400000000000091,-0.09999999999999432)"><svg viewBox="0 0 395.52 247.2" height="247.2" width="395.52"><g><svg></svg></g><g><svg viewBox="0 0 395.52 247.2" height="247.2" width="395.52"><mask id="05c19079-c51b-4448-9ddc-90efbfae8b6a"><rect width="395.52" height="247.2" fill="white"></rect><g transform="matrix(1,0,0,1,0,83.01979970168335)" id="clone"><svg viewBox="0 0 395.52 81.16040059663328" height="81.16040059663328" width="395.52"><g><svg viewBox="0 0 395.52 81.16040059663328" height="81.16040059663328" width="395.52"><g><svg viewBox="0 0 395.52 81.16040059663328" height="81.16040059663328" width="395.52"><g><svg viewBox="0 0 395.52 81.16040059663328" height="81.16040059663328" width="395.52"><g id="SvgjsG1074"><svg viewBox="0 0 395.52 81.16040059663328" height="81.16040059663328" width="395.52" id="SvgjsSvg1073"><g><svg viewBox="0 0 395.52 81.16040059663328" height="81.16040059663328" width="395.52"><g transform="matrix(1,0,0,1,0,0)"><svg width="395.52" viewBox="2.3499999046325684 -45.29999923706055 235.62998962402344 49.14999771118164" height="81.16040059663328" data-palette-color="#010c80"><path d="M27.3 0L17.55-16.05 10.2-16.05 10.2 0 5.35 0 5.35-37.9 18.6-37.9Q31-37.9 31-26.9L31-26.9Q31-22.55 28.93-19.88 26.85-17.2 22.7-16.4L22.7-16.4 32.85 0 27.3 0ZM10.2-33.65L10.2-20.3 18.6-20.3Q26-20.3 26.05-26.9L26.05-26.9Q26.05-30.4 24.2-32.02 22.35-33.65 18.6-33.65L18.6-33.65 10.2-33.65ZM48.3-27.65Q52.7-27.65 55-26.18 57.3-24.7 58.05-22.23 58.8-19.75 58.8-16L58.8-16 58.8 0 54.1 0 54.1-2.75Q52.2-0.95 50.3-0.15 48.4 0.65 46.2 0.65L46.2 0.65Q43.6 0.65 41.5-0.48 39.4-1.6 38.17-3.73 36.95-5.85 36.95-8.75L36.95-8.75Q36.95-13.25 39.75-15.73 42.55-18.2 47.3-18.2L47.3-18.2Q51.05-18.2 54.05-16.55L54.05-16.55Q54-19 53.55-20.45 53.1-21.9 51.7-22.68 50.3-23.45 47.55-23.45L47.55-23.45 43.85-23.45 43.85-27.65 48.3-27.65ZM46.85-3.4Q48.55-3.4 50.42-4.2 52.3-5 54.1-6.6L54.1-6.6 54.1-12.9Q51.3-14.3 48-14.3L48-14.3Q45.35-14.3 43.55-13.03 41.75-11.75 41.75-8.75L41.75-8.75Q41.75-5.95 43.27-4.67 44.8-3.4 46.85-3.4L46.85-3.4ZM74.95 0.85Q71.9 0.85 69.55 0.35 67.2-0.15 64.65-1.35L64.65-1.35 64.65-6Q69.4-3.35 74.95-3.35L74.95-3.35Q77.75-3.35 78.97-4.48 80.2-5.6 80.2-7.45L80.2-7.45Q80.2-9.25 79.22-10.1 78.25-10.95 76.05-11.55L76.05-11.55 72.8-12.35Q69.3-13.2 67.3-15.05 65.3-16.9 65.3-20.5L65.3-20.5Q65.3-24.25 67.75-26.35 70.2-28.45 74.95-28.45L74.95-28.45Q77.4-28.45 79.5-27.98 81.6-27.5 83.7-26.65L83.7-26.65 83.7-22.25Q81.65-23.2 79.65-23.73 77.65-24.25 75.1-24.25L75.1-24.25Q72.45-24.25 71.27-23.23 70.1-22.2 70.1-20.65L70.1-20.65Q70.1-18.95 71.12-18.07 72.15-17.2 74.1-16.7L74.1-16.7 77.4-15.95Q79.9-15.35 81.52-14.45 83.15-13.55 84.07-11.93 85-10.3 85-7.6L85-7.6Q85-3.55 82.27-1.35 79.55 0.85 74.95 0.85L74.95 0.85ZM105.39-28.25Q110.49-28.25 112.97-25.55 115.44-22.85 115.44-16.65L115.44-16.65 115.44 0 110.74 0 110.74-16.65Q110.74-20.55 109.42-22.2 108.09-23.85 104.74-23.85L104.74-23.85Q100.84-23.85 96.94-20.45L96.94-20.45 96.94 0 92.24 0 92.24-42.3 96.94-42.3 96.94-24.7Q100.99-28.25 105.39-28.25L105.39-28.25ZM155.29-28.25Q160.34-28.25 162.77-25.55 165.19-22.85 165.19-16.65L165.19-16.65 165.19 0 160.49 0 160.49-16.65Q160.49-20.6 159.22-22.23 157.94-23.85 154.64-23.85L154.64-23.85Q150.74-23.85 146.84-20.1L146.84-20.1Q147.04-18.7 147.04-16.65L147.04-16.65 147.04 0 142.34 0 142.34-16.65Q142.34-20.6 141.06-22.23 139.79-23.85 136.49-23.85L136.49-23.85Q132.69-23.85 128.89-20.45L128.89-20.45 128.89 0 124.19 0 124.19-27.65 128.89-27.65 128.89-24.7Q132.94-28.25 137.14-28.25L137.14-28.25Q140.49-28.25 142.64-27.13 144.79-26 145.89-23.55L145.89-23.55Q150.44-28.25 155.29-28.25L155.29-28.25ZM173.09-32.85L173.09-40.4 177.79-40.4 177.79-32.85 173.09-32.85ZM173.09 0L173.09-27.65 177.79-27.65 177.79 0 173.09 0ZM204.59 0L194.49-12.75 191.49-9.7 191.49 0 186.79 0 186.79-42.3 191.49-42.3 191.49-15.65 202.79-27.3 208.69-27.3 197.69-16 210.29 0 204.59 0ZM224.48-27.65Q228.88-27.65 231.18-26.18 233.48-24.7 234.23-22.23 234.98-19.75 234.98-16L234.98-16 234.98 0 230.28 0 230.28-2.75Q228.38-0.95 226.48-0.15 224.58 0.65 222.38 0.65L222.38 0.65Q219.78 0.65 217.68-0.48 215.58-1.6 214.36-3.73 213.13-5.85 213.13-8.75L213.13-8.75Q213.13-13.25 215.93-15.73 218.73-18.2 223.48-18.2L223.48-18.2Q227.23-18.2 230.23-16.55L230.23-16.55Q230.18-19 229.73-20.45 229.28-21.9 227.88-22.68 226.48-23.45 223.73-23.45L223.73-23.45 220.03-23.45 220.03-27.65 224.48-27.65ZM223.03-3.4Q224.73-3.4 226.61-4.2 228.48-5 230.28-6.6L230.28-6.6 230.28-12.9Q227.48-14.3 224.18-14.3L224.18-14.3Q221.53-14.3 219.73-13.03 217.93-11.75 217.93-8.75L217.93-8.75Q217.93-5.95 219.46-4.67 220.98-3.4 223.03-3.4L223.03-3.4Z" opacity="1" transform="matrix(1,0,0,1,0,0)" fill="black" class="wordmark-text-0" id="SvgjsPath1072" stroke-width="5" stroke="black" stroke-linejoin="round"></path></svg></g></svg></g></svg></g></svg></g><g></g></svg></g></svg></g></svg></g></mask><g mask="url(#05c19079-c51b-4448-9ddc-90efbfae8b6a)"><g><path xmlns="http://www.w3.org/2000/svg" d="M251.244 247.2l-63.594-104.685h-47.94v104.685h-31.633v-247.2h86.422c53.919 0 80.878 23.916 80.878 71.747v0c0 18.915-4.5 34.178-13.502 45.787-9.044 11.653-22.589 19.219-40.634 22.698v0l66.202 106.968zM139.71 27.72v87.075h54.789c32.177 0 48.375-14.349 48.592-43.048v0c0-15.219-4.022-26.351-12.067-33.395-8.044-7.088-20.22-10.632-36.525-10.632v0z" fill="#010c80" fill-rule="nonzero" stroke="none" stroke-width="1" stroke-linecap="butt" stroke-linejoin="miter" stroke-miterlimit="10" stroke-dasharray="" stroke-dashoffset="0" font-family="none" font-weight="none" font-size="none" text-anchor="none" style="mix-blend-mode: normal" data-fill-palette-color="tertiary"></path></g></g><g transform="matrix(1,0,0,1,0,83.01979970168335)"><svg viewBox="0 0 395.52 81.16040059663328" height="81.16040059663328" width="395.52"><g><svg viewBox="0 0 395.52 81.16040059663328" height="81.16040059663328" width="395.52"><g><svg viewBox="0 0 395.52 81.16040059663328" height="81.16040059663328" width="395.52"><g><svg viewBox="0 0 395.52 81.16040059663328" height="81.16040059663328" width="395.52"><g id="textblocktransform"><svg viewBox="0 0 395.52 81.16040059663328" height="81.16040059663328" width="395.52" id="textblock"><g><svg viewBox="0 0 395.52 81.16040059663328" height="81.16040059663328" width="395.52"><g transform="matrix(1,0,0,1,0,0)"><svg width="395.52" viewBox="2.3499999046325684 -45.29999923706055 235.62998962402344 49.14999771118164" height="81.16040059663328" data-palette-color="#010c80"><path d="M27.3 0L17.55-16.05 10.2-16.05 10.2 0 5.35 0 5.35-37.9 18.6-37.9Q31-37.9 31-26.9L31-26.9Q31-22.55 28.93-19.88 26.85-17.2 22.7-16.4L22.7-16.4 32.85 0 27.3 0ZM10.2-33.65L10.2-20.3 18.6-20.3Q26-20.3 26.05-26.9L26.05-26.9Q26.05-30.4 24.2-32.02 22.35-33.65 18.6-33.65L18.6-33.65 10.2-33.65ZM48.3-27.65Q52.7-27.65 55-26.18 57.3-24.7 58.05-22.23 58.8-19.75 58.8-16L58.8-16 58.8 0 54.1 0 54.1-2.75Q52.2-0.95 50.3-0.15 48.4 0.65 46.2 0.65L46.2 0.65Q43.6 0.65 41.5-0.48 39.4-1.6 38.17-3.73 36.95-5.85 36.95-8.75L36.95-8.75Q36.95-13.25 39.75-15.73 42.55-18.2 47.3-18.2L47.3-18.2Q51.05-18.2 54.05-16.55L54.05-16.55Q54-19 53.55-20.45 53.1-21.9 51.7-22.68 50.3-23.45 47.55-23.45L47.55-23.45 43.85-23.45 43.85-27.65 48.3-27.65ZM46.85-3.4Q48.55-3.4 50.42-4.2 52.3-5 54.1-6.6L54.1-6.6 54.1-12.9Q51.3-14.3 48-14.3L48-14.3Q45.35-14.3 43.55-13.03 41.75-11.75 41.75-8.75L41.75-8.75Q41.75-5.95 43.27-4.67 44.8-3.4 46.85-3.4L46.85-3.4ZM74.95 0.85Q71.9 0.85 69.55 0.35 67.2-0.15 64.65-1.35L64.65-1.35 64.65-6Q69.4-3.35 74.95-3.35L74.95-3.35Q77.75-3.35 78.97-4.48 80.2-5.6 80.2-7.45L80.2-7.45Q80.2-9.25 79.22-10.1 78.25-10.95 76.05-11.55L76.05-11.55 72.8-12.35Q69.3-13.2 67.3-15.05 65.3-16.9 65.3-20.5L65.3-20.5Q65.3-24.25 67.75-26.35 70.2-28.45 74.95-28.45L74.95-28.45Q77.4-28.45 79.5-27.98 81.6-27.5 83.7-26.65L83.7-26.65 83.7-22.25Q81.65-23.2 79.65-23.73 77.65-24.25 75.1-24.25L75.1-24.25Q72.45-24.25 71.27-23.23 70.1-22.2 70.1-20.65L70.1-20.65Q70.1-18.95 71.12-18.07 72.15-17.2 74.1-16.7L74.1-16.7 77.4-15.95Q79.9-15.35 81.52-14.45 83.15-13.55 84.07-11.93 85-10.3 85-7.6L85-7.6Q85-3.55 82.27-1.35 79.55 0.85 74.95 0.85L74.95 0.85ZM105.39-28.25Q110.49-28.25 112.97-25.55 115.44-22.85 115.44-16.65L115.44-16.65 115.44 0 110.74 0 110.74-16.65Q110.74-20.55 109.42-22.2 108.09-23.85 104.74-23.85L104.74-23.85Q100.84-23.85 96.94-20.45L96.94-20.45 96.94 0 92.24 0 92.24-42.3 96.94-42.3 96.94-24.7Q100.99-28.25 105.39-28.25L105.39-28.25ZM155.29-28.25Q160.34-28.25 162.77-25.55 165.19-22.85 165.19-16.65L165.19-16.65 165.19 0 160.49 0 160.49-16.65Q160.49-20.6 159.22-22.23 157.94-23.85 154.64-23.85L154.64-23.85Q150.74-23.85 146.84-20.1L146.84-20.1Q147.04-18.7 147.04-16.65L147.04-16.65 147.04 0 142.34 0 142.34-16.65Q142.34-20.6 141.06-22.23 139.79-23.85 136.49-23.85L136.49-23.85Q132.69-23.85 128.89-20.45L128.89-20.45 128.89 0 124.19 0 124.19-27.65 128.89-27.65 128.89-24.7Q132.94-28.25 137.14-28.25L137.14-28.25Q140.49-28.25 142.64-27.13 144.79-26 145.89-23.55L145.89-23.55Q150.44-28.25 155.29-28.25L155.29-28.25ZM173.09-32.85L173.09-40.4 177.79-40.4 177.79-32.85 173.09-32.85ZM173.09 0L173.09-27.65 177.79-27.65 177.79 0 173.09 0ZM204.59 0L194.49-12.75 191.49-9.7 191.49 0 186.79 0 186.79-42.3 191.49-42.3 191.49-15.65 202.79-27.3 208.69-27.3 197.69-16 210.29 0 204.59 0ZM224.48-27.65Q228.88-27.65 231.18-26.18 233.48-24.7 234.23-22.23 234.98-19.75 234.98-16L234.98-16 234.98 0 230.28 0 230.28-2.75Q228.38-0.95 226.48-0.15 224.58 0.65 222.38 0.65L222.38 0.65Q219.78 0.65 217.68-0.48 215.58-1.6 214.36-3.73 213.13-5.85 213.13-8.75L213.13-8.75Q213.13-13.25 215.93-15.73 218.73-18.2 223.48-18.2L223.48-18.2Q227.23-18.2 230.23-16.55L230.23-16.55Q230.18-19 229.73-20.45 229.28-21.9 227.88-22.68 226.48-23.45 223.73-23.45L223.73-23.45 220.03-23.45 220.03-27.65 224.48-27.65ZM223.03-3.4Q224.73-3.4 226.61-4.2 228.48-5 230.28-6.6L230.28-6.6 230.28-12.9Q227.48-14.3 224.18-14.3L224.18-14.3Q221.53-14.3 219.73-13.03 217.93-11.75 217.93-8.75L217.93-8.75Q217.93-5.95 219.46-4.67 220.98-3.4 223.03-3.4L223.03-3.4Z" opacity="1" transform="matrix(1,0,0,1,0,0)" fill="#010c80" class="wordmark-text-0" data-fill-palette-color="primary" id="text-0"></path></svg></g></svg></g></svg></g></svg></g><g></g></svg></g></svg></g></svg></g></svg></g><defs></defs></svg><rect width="395.52" height="247.2" fill="none" stroke="none" visibility="hidden"></rect></g></svg></g></svg>